<?xml version="1.0" standalone="no"?>
<!DOCTYPE svg PUBLIC "-//W3C//DTD SVG 20010904//EN"
 "http://www.w3.org/TR/2001/REC-SVG-20010904/DTD/svg10.dtd">
<svg version="1.0" xmlns="http://www.w3.org/2000/svg"
 width="250.000000pt" height="250.000000pt" viewBox="0 0 250.000000 250.000000"
 preserveAspectRatio="xMidYMid meet">

<g transform="translate(0.000000,250.000000) scale(0.100000,-0.100000)"
fill="#000000" stroke="none">
<path d="M1188 2030 c-62 -10 -102 -26 -94 -39 3 -4 34 -3 70 2 83 13 231 -3
306 -32 71 -27 113 -61 101 -81 -8 -12 -12 -12 -29 3 -10 9 -26 17 -34 17 -9
0 -18 3 -20 8 -6 14 -68 43 -78 37 -6 -4 5 -24 26 -48 19 -23 38 -53 41 -67 5
-26 5 -26 109 -26 72 -1 104 3 104 11 0 6 -13 31 -28 56 -34 53 -119 114 -199
141 -66 23 -190 31 -275 18z"/>
<path d="M730 2017 c0 -28 106 -62 190 -61 80 1 160 18 160 34 0 6 -40 10 -92
11 -51 0 -113 4 -138 9 -25 4 -62 11 -82 15 -30 6 -38 5 -38 -8z"/>
<path d="M684 1995 c-20 -31 -13 -95 16 -143 26 -42 25 -43 -6 -32 -42 16 -74
13 -74 -9 0 -25 35 -68 70 -86 l29 -15 -26 -56 c-29 -65 -43 -177 -23 -189 7
-5 16 -2 21 7 5 9 25 15 51 16 48 2 61 11 52 35 -7 19 -46 32 -69 23 -26 -10
-18 55 15 121 42 85 49 89 102 62 61 -32 183 -37 296 -14 49 11 93 26 103 36
10 10 30 21 44 25 44 11 28 27 -20 19 -77 -11 -151 4 -207 41 -27 19 -55 34
-61 34 -17 0 44 -60 83 -81 35 -19 35 -19 5 -13 -65 14 -136 46 -131 59 4 12
-90 82 -100 73 -8 -8 36 -57 56 -63 11 -4 20 -12 20 -20 0 -17 50 -54 99 -72
35 -13 34 -14 -29 -8 -96 9 -139 22 -197 62 -66 44 -98 104 -90 169 5 49 -5
56 -29 19z m76 -216 c0 -20 -35 -27 -62 -13 -15 8 -28 16 -28 18 0 2 20 4 45
4 25 -1 45 -5 45 -9z"/>
<path d="M720 1952 c0 -14 21 -44 58 -82 50 -52 63 -60 95 -60 20 0 37 2 37 5
0 3 -20 15 -45 26 -43 20 -74 48 -124 109 l-20 25 -1 -23z"/>
<path d="M1289 1943 c-1 -5 -1 -11 0 -15 0 -5 -15 -8 -34 -8 -44 0 -45 -12 -1
-32 41 -20 108 -77 101 -88 -2 -4 6 -6 18 -5 12 1 37 3 55 4 17 0 32 6 32 13
0 21 -52 88 -84 107 -36 21 -85 35 -87 24z"/>
<path d="M1717 1933 c-2 -5 -5 -34 -6 -67 -2 -43 1 -57 10 -54 18 6 31 57 24
96 -6 30 -19 42 -28 25z"/>
<path d="M1100 1850 c0 -15 45 -41 73 -43 45 -4 34 16 -20 34 -29 10 -53 14
-53 9z"/>
<path d="M1680 1781 c0 -5 26 -15 58 -24 31 -8 65 -18 75 -22 12 -5 17 -2 17
9 0 10 -15 23 -35 32 -38 15 -115 19 -115 5z"/>
<path d="M1474 1758 c-3 -4 -1 -8 4 -8 10 0 72 -87 72 -101 0 -4 -13 -7 -30
-7 -16 1 -30 6 -30 13 0 6 -14 30 -30 52 -17 23 -27 43 -23 45 5 3 2 3 -5 1
-8 -1 -23 -3 -35 -3 -20 0 -19 -2 7 -29 39 -40 55 -102 48 -189 l-5 -72 41
-43 c22 -24 44 -53 50 -64 7 -12 35 -27 72 -38 33 -10 64 -23 67 -28 4 -6 0
-8 -9 -5 -68 27 -185 57 -240 63 -53 5 -68 10 -73 25 -8 25 -43 46 -96 58
l-44 10 38 1 c43 1 48 17 14 49 -49 47 -151 68 -177 37 -20 -25 -5 -41 62 -63
l63 -21 -103 -1 c-125 0 -158 -13 -168 -65 -6 -33 -8 -35 -41 -32 -31 2 -37 7
-47 37 -18 56 -60 72 -179 68 -133 -4 -137 -9 -137 -159 0 -112 12 -162 47
-201 13 -15 14 -24 4 -64 -36 -142 123 -308 324 -339 82 -13 83 -13 77 -40 -2
-14 -9 -25 -14 -25 -36 0 -248 -266 -232 -292 16 -26 195 -93 319 -120 96 -20
304 -15 407 10 177 43 341 127 467 240 l44 39 -28 37 c-36 48 -169 162 -216
186 -23 12 -42 32 -54 59 -10 22 -26 48 -37 58 -18 16 -17 18 43 30 77 15 124
51 162 123 32 62 36 140 11 194 -16 33 -16 35 10 68 62 82 74 224 28 323 -44
92 -107 158 -163 169 -99 20 -142 25 -197 24 -35 -1 -66 -6 -68 -10z m140 -71
c29 -51 56 -117 47 -117 -4 0 -12 15 -17 33 -6 21 -17 33 -30 35 -32 5 -61 82
-31 82 6 0 20 -15 31 -33z m75 -19 c11 -21 17 -38 13 -38 -7 0 -36 50 -50 85
-9 22 17 -11 37 -47z m-80 -98 c1 -13 0 -13 -9 0 -5 8 -9 24 -9 35 l0 20 9
-20 c5 -11 9 -27 9 -35z m246 -80 c3 -6 -1 -7 -9 -4 -18 7 -21 14 -7 14 6 0
13 -4 16 -10z m-275 -30 c8 -5 11 -10 5 -10 -5 0 -17 5 -25 10 -8 5 -10 10 -5
10 6 0 17 -5 25 -10z m295 -38 c-3 -3 -11 0 -18 7 -9 10 -8 11 6 5 10 -3 15
-9 12 -12z m-95 -2 c8 -5 11 -10 5 -10 -5 0 -17 5 -25 10 -8 5 -10 10 -5 10 6
0 17 -5 25 -10z m80 -46 c0 -2 -13 2 -30 11 -16 9 -30 18 -30 21 0 2 14 -2 30
-11 17 -9 30 -18 30 -21z m-245 16 c3 -6 -1 -7 -9 -4 -18 7 -21 14 -7 14 6 0
13 -4 16 -10z m-824 -21 c14 -7 19 -21 20 -57 2 -98 -2 -114 -33 -140 -24 -21
-29 -31 -26 -59 4 -30 2 -33 -22 -33 -14 0 -42 5 -63 11 -53 14 -67 51 -67
173 0 123 7 131 103 122 38 -3 77 -11 88 -17z m472 -21 c20 -14 25 -27 30 -80
8 -89 -5 -147 -39 -176 -26 -23 -34 -24 -121 -20 -129 5 -137 14 -141 149 -3
81 -1 104 13 126 17 25 18 25 125 21 76 -3 115 -9 133 -20z m-333 -169 c10
-112 71 -152 237 -153 88 -1 105 2 130 20 34 25 62 93 62 153 l1 44 38 -7 c20
-3 75 -7 122 -8 l85 -1 -65 -6 c-62 -6 -65 -7 -71 -36 -15 -68 -12 -73 39 -88
26 -7 53 -12 60 -9 7 2 18 24 24 48 16 57 72 98 137 99 38 0 47 -5 77 -39 27
-31 34 -48 34 -80 0 -109 -57 -185 -153 -206 -42 -10 -63 -10 -81 -2 -21 9
-28 6 -60 -28 -22 -23 -36 -48 -36 -64 0 -20 -11 -32 -58 -59 -98 -57 -278
-121 -244 -86 6 7 12 16 12 19 0 4 -53 10 -117 13 -152 8 -212 20 -295 59
-114 52 -192 155 -186 243 l3 40 50 1 c28 0 67 1 88 2 l39 2 -7 41 c-7 39 -5
44 29 75 20 18 36 41 36 52 0 26 7 31 38 23 24 -7 28 -13 32 -62z m690 -364
c7 -9 24 -39 37 -66 23 -51 23 -51 4 -93 -10 -22 -31 -53 -47 -68 -43 -40
-160 -105 -232 -129 -87 -29 -207 -24 -277 12 -47 24 -49 25 -67 98 -20 78
-18 101 7 101 17 0 19 -9 6 -30 -14 -21 -1 -34 13 -14 22 30 36 6 36 -61 0
-35 5 -67 10 -70 6 -4 10 18 10 59 0 36 4 66 9 66 28 0 41 -15 41 -45 0 -42
11 -95 19 -95 4 0 5 32 3 70 -4 65 -3 70 16 70 17 0 23 -12 37 -75 9 -41 20
-73 24 -71 4 3 1 37 -7 76 -14 62 -14 73 -1 81 28 18 37 8 54 -58 10 -38 22
-72 27 -77 13 -16 9 14 -12 83 -11 36 -18 66 -17 67 1 1 13 7 26 14 32 16 40
5 61 -81 9 -40 21 -74 27 -76 5 -2 0 36 -13 84 -21 75 -22 89 -10 102 13 12
17 9 30 -24 9 -20 21 -54 27 -76 7 -21 16 -39 21 -39 11 0 11 0 -18 80 -20 53
-24 74 -15 83 14 14 34 -11 56 -73 30 -81 28 -77 32 -58 2 9 -10 46 -26 83
-29 64 -30 69 -14 81 10 7 21 14 24 14 7 0 32 -49 53 -102 8 -21 19 -38 25
-38 10 0 -6 44 -41 113 -10 21 -16 42 -13 47 14 23 35 6 62 -47 16 -35 29 -51
31 -41 3 17 -38 91 -58 103 -8 5 -8 11 1 21 15 18 23 18 39 -1z"/>
<path d="M665 1348 c-2 -13 -6 -34 -8 -48 -4 -20 -5 -19 -6 8 -1 25 -5 32 -21
32 -17 0 -20 -7 -20 -49 0 -51 15 -74 32 -50 6 9 7 2 2 -21 -20 -90 1 -137 23
-53 19 71 29 203 15 203 -7 0 -14 -10 -17 -22z"/>
<path d="M745 1359 c-4 -6 -9 -37 -12 -69 -4 -45 -2 -65 11 -85 14 -21 20 -24
36 -15 17 9 20 21 20 83 0 71 -10 97 -36 97 -7 0 -16 -5 -19 -11z"/>
<path d="M1109 1344 c-7 -9 -15 -42 -17 -74 -4 -50 -1 -61 18 -80 20 -20 24
-21 38 -7 8 9 17 39 20 69 6 86 -24 134 -59 92z"/>
<path d="M1672 1120 c-50 -36 -75 -71 -70 -101 5 -36 32 -46 72 -26 43 20 57
59 31 87 -16 17 -15 19 9 35 14 10 26 21 26 26 0 17 -27 9 -68 -21z"/>
<path d="M1436 1081 c16 -16 116 -42 112 -29 -2 6 -24 17 -49 24 -52 16 -77
18 -63 5z"/>
<path d="M855 900 c3 -5 24 -10 46 -10 24 0 38 4 34 10 -3 6 -24 10 -46 10
-24 0 -38 -4 -34 -10z"/>
</g>
</svg>
